<svg width="53" height="48" xmlns="http://www.w3.org/2000/svg"><g fill-rule="nonzero" fill="none"><path d="M30 41H8V17h20.87c.624 0 1.13.497 1.13 1.111V41z" fill="#EAB765"/><path d="M28.739 17H25c.697 0 1.261.497 1.261 1.111V41H30V18.111c0-.614-.565-1.111-1.261-1.111z" fill="#D9AB5E"/><path d="M8.067 5.258V42H11V5.258c0-1.975-1.448-3.694-3.444-4.087L1.76.029C.965-.128.19.37.029 1.14c-.16.77.352 1.521 1.146 1.677L6.973 3.96c.634.125 1.094.672 1.094 1.3z" fill="#7CA1B1"/><path d="M51.884 42H6.116C5.5 42 5 41.565 5 41.028v-1.056c0-.537.5-.972 1.116-.972h45.768c.616 0 1.116.435 1.116.972v1.056c0 .537-.5.972-1.116.972z" fill="#FF4755"/><path d="M18 43.5a4.5 4.5 0 1 1-9 0 4.5 4.5 0 0 1 9 0z" fill="#384949"/><path d="M16 43.5a2.5 2.5 0 1 1-5 0 2.5 2.5 0 0 1 5 0z" fill="#DEECF1"/><path d="M48 43.5a4.5 4.5 0 1 1-9 0 4.5 4.5 0 0 1 9 0z" fill="#384949"/><path d="M46 43.5a2.5 2.5 0 1 1-5 0 2.5 2.5 0 0 1 5 0z" fill="#DEECF1"/></g></svg>