<svg width="187" height="174" fill="none" xmlns="http://www.w3.org/2000/svg"><path d="M93.257 146.49c28.744 0 52.046-23.301 52.046-52.046 0-28.744-23.302-52.046-52.046-52.046S41.21 65.7 41.21 94.444c0 28.745 23.302 52.046 52.046 52.046z" fill="#F5F9FC"/><path d="M83.441 156.595c-34.324-5.42-57.753-37.641-52.334-71.965m100.401-40.153c17.712 13.585 27.621 36.189 23.893 59.784" stroke="#DCE6F9" stroke-width=".588" stroke-miterlimit="10"/><path d="M22.565 144.009c-26.778-41.081-15.18-96.09 25.9-122.864M185.46 88.354c2.163 26.991-8.108 54.246-28.979 73.059m-43.121-142.31a78.13 78.13 0 0 1 18.704 7.73" stroke="#DCE6F9" stroke-width=".588" stroke-miterlimit="10"/><path d="M25.645 55.635C38.58 33.102 61.062 19.47 85.064 16.914m27.811 152.979c-19.062 4.959-40.004 2.742-58.434-7.837m106.424-28.802c-7.37 12.837-17.837 22.786-29.916 29.442" stroke="#DCE6F9" stroke-width=".588" stroke-miterlimit="10"/><path opacity=".62" d="M78.024 41.836H52.048a.626.626 0 0 0-.626.627v18.734c0 .346.28.626.626.626h25.976a.626.626 0 0 0 .626-.626V42.463a.626.626 0 0 0-.626-.627z" fill="#DCE6F9"/><path d="M67.474 44.65h-8.119v.836h8.119v-.836zm7.386 2.23H59.355v.498H74.86v-.497zm-3.273 3.586H59.355v.836h12.232v-.836zm-5.65 2.234h-6.582v.498h6.581V52.7zm8.923 3.582H59.355v.836H74.86v-.836zm-4.055 2.234h-11.45v.498h11.45v-.498z" fill="#CFDBF5"/><path d="M55.33 47.547a1.534 1.534 0 1 0 0-3.067 1.534 1.534 0 0 0 0 3.067z" fill="#BCCEFA"/><path d="M55.33 53.364a1.534 1.534 0 1 0 0-3.068 1.534 1.534 0 0 0 0 3.068z" fill="#FCE358"/><path d="M55.33 59.183a1.534 1.534 0 1 0 0-3.067 1.534 1.534 0 0 0 0 3.067z" fill="#fff"/><path d="M61.425 26.626V48.17a.72.72 0 0 1-.718.718H30.835a.718.718 0 0 1-.718-.718V26.626a.716.716 0 0 1 .718-.718h29.869a.72.72 0 0 1 .717.718h.004z" fill="#F5F9FC"/><path d="M61.425 26.626v1.104H30.117v-1.104a.716.716 0 0 1 .718-.718h29.869a.72.72 0 0 1 .717.718h.004z" fill="#FE5A8F"/><path d="M60.205 27.036a.217.217 0 1 0 0-.434.217.217 0 0 0 0 .434zm-.746 0a.217.217 0 1 0 0-.434.217.217 0 0 0 0 .434zm-.754 0a.217.217 0 1 0 0-.434.217.217 0 0 0 0 .434z" fill="#fff"/><path d="M45.767 43.898a6.77 6.77 0 1 0 0-13.541 6.77 6.77 0 0 0 0 13.541z" fill="#06C998"/><path d="M49 36.816a.36.36 0 0 1 0 .623l-2.448 1.411-2.447 1.412a.358.358 0 0 1-.539-.311V34.3c0-.278.302-.45.539-.312l2.447 1.412L49 36.812v.004z" fill="#fff"/><path d="M59.69 45.994H32.04a.264.264 0 0 0-.264.264v.074a.264.264 0 0 0 .264.264H59.69a.264.264 0 0 0 .264-.264v-.074a.264.264 0 0 0-.264-.264z" fill="#DCE6F9"/><path d="M35.85 45.59h-1.023a.616.616 0 0 0-.616.617v.173c0 .34.276.616.616.616h1.022a.616.616 0 0 0 .617-.616v-.173a.616.616 0 0 0-.617-.616z" fill="#FE5A8F"/><path d="M57.632 170.272s-3.558-.2-4.756-5c-.484-1.944-.237-3.592 5.44-5.891 5.674-2.299 15.292-4.377 16.453-3.527 1.158.849 4.36 9.255 2.22 10.701l-19.353 3.717h-.004z" fill="#E6E6E6"/><path d="M75.983 159.706c.708 1.72 1.006 6.848 1.006 6.848l-19.354 3.717s-4.347-3.27-2.803-5.978c1.547-2.705 15.71-5.972 17.519-6.053 1.807-.081 3.212.45 3.632 1.466z" fill="#BDBDBD"/><path d="M74.666 160.451s-.102-2.041 1.263-.2c.561.759 1.81 4.127 1.218 5.806-.186.525-1.208-1.703-1.208-1.703l-1.273-3.899v-.004z" fill="#A6A6A6"/><path d="M77.64 164.581s-1.368-1.781-1.524-2.962l-.182-1.371 5.26-2.532 1-.485 2.352 4.919-1.842.65-5.06 1.778-.004.003z" fill="#EFB391"/><path d="M82.7 162.804c-.193-.457-1.899-2.929-1.51-5.085l.999-.484 2.353 4.919-1.842.65z" fill="#D69A76"/><path d="M76.623 165.586s-1.453-.433-2.174-2.423c-.714-1.994 1.25-3.125 1.25-3.125l.328-.163v-.006l.626-.315.559-.278.569-.288v-.006l.551-.278.701-.352.437.2-.305.145s-.07.816.549 2.39c.626 1.568 1.482 2.248 1.482 2.248l.291-.105s.014.363-.087.434c-.031.023-.326.142-.725.308-.183.071-.39.152-.603.243-.182.065-.375.143-.565.214-.2.084-.396.159-.582.237-.2.081-.39.152-.545.213h-.007l-1.743.704-.007.003z" fill="#F0E8DB"/><path d="M80.065 164.219c-.545-.471-1.36-1.398-1.865-3.03-.325-1.039-.416-1.747-.427-2.204v-.007l.552-.277c.014.406.092 1.269.406 2.305.42 1.371 1.345 2.41 1.937 2.966-.183.071-.39.152-.603.243v.004zm-1.144.45c-.535-.45-1.399-1.405-1.9-3.142-.257-.876-.348-1.52-.369-1.973l.559-.278c.02.454.102 1.202.349 2.075.41 1.446 1.367 2.533 1.943 3.084-.2.085-.396.159-.582.237v-.003zm-1.049.409s-.833-.457-1.554-2.447c-.714-1.994-.623-2.593-.623-2.593l.329-.163c.033.464.121 1.121.342 1.879.423 1.49 1.428 2.597 1.997 3.132l-.488.196-.003-.004zm-1.027.414s-.833-.457-1.554-2.448c-.714-1.994-.623-2.593-.623-2.593l.328-.163a9.19 9.19 0 0 0 .342 1.879c.423 1.49 1.429 2.597 1.998 3.132l-.488.196-.003-.003z" fill="#D54042"/><path d="M75.06 159.456s-1.695 2.437 2.14 6.411a.406.406 0 0 1-.213.684l-16.93 3.26s-3.646-1.537-2.15-4.621c1.497-3.084 17.15-5.734 17.15-5.734h.004z" fill="#CDCDCD"/><path d="M68.547 161.253s2.133-.328 3.632 3.023c1.5 3.352-1.598 4.326-1.598 4.326" stroke="#fff" stroke-width=".588" stroke-linecap="round" stroke-linejoin="round"/><path d="M69.258 168.606c.311-.241 3.44-3.213 2.346-5.397" stroke="#fff" stroke-width=".588" stroke-linecap="round" stroke-linejoin="round"/><path d="M66.973 162.052c.365-.091 4.052 1.141 3.812 4.838" stroke="#fff" stroke-width=".588" stroke-linecap="round" stroke-linejoin="round"/><path d="M67.824 168.839s2-3.168.884-6.083m-4.735-.589s.572-1.293 1.55-.762c.979.532 2.438 3.768-.288 7.316" stroke="#fff" stroke-width=".588" stroke-linecap="round" stroke-linejoin="round"/><path d="M64.488 163.26c.081-.05 4.614-.135 4.388 2.908" stroke="#fff" stroke-width=".588" stroke-linecap="round" stroke-linejoin="round"/><path d="M51.936 60.148s-.196 5.321-1.994 6.93c-1.797 1.607-7.268.866-7.268.866l-3.084-3.2 12.346-4.593v-.004z" fill="#E3A27D"/><path d="M79.953 79.4s-20.576 18.65-24.26 10.383c-3.682-8.267 2.337-18.884-4.275-21.03-6.608-2.146-10.366.359-12.37 3.65-2.034 3.337-.484 23.233 7.502 32.353 5.268 6.016 18.877 5.654 34.53-9.374C92.993 83.943 79.953 79.4 79.953 79.4z" fill="#E94582"/><path d="m41.489 69.968-.065-.257-.01-2.471s4.469-1.165 8.826-.796l1.103.122.42 2.692-10.268.71h-.006z" fill="#E94582"/><path d="M41.426 69.711s1.716-.359 5.41-.616c3.69-.257 4.85-.22 4.85-.22l-.043-.362s-3.626.064-6.764.203c-3.138.139-3.45.369-3.45.369v.623l-.003.003z" fill="#D13E75"/><path d="m42.027 69.21.01-2.113.356-.105-.01 2.1-.356.118zm1.387-.183.01-2.217h.352l-.01 2.102-.352.115zm1.64-.162.01-2.221.353.003-.01 2.1-.352.118zm1.657-.027.014-2.34h.352l-.01 2.225-.356.115zm1.508-.061.01-2.34h.352l-.01 2.221-.352.119zm1.652.006.014-2.339h.352l-.014 2.224-.352.115z" fill="#D13E75"/><path d="M46.77 47.547h-2.008v6.828h2.007v-6.828z" fill="#3563D3"/><path d="M52.207 30.932a9.057 9.057 0 0 1 2.67 6.45c0 5.03-4.092 9.12-9.12 9.12a9.057 9.057 0 0 1-6.448-2.672 9.057 9.057 0 0 1-2.671-6.449c0-5.03 4.092-9.12 9.12-9.12 2.437 0 4.725.948 6.449 2.671zm.338-.339a9.569 9.569 0 0 0-6.787-2.81 9.596 9.596 0 0 0-9.598 9.598c0 2.65 1.073 5.051 2.81 6.788a9.569 9.569 0 0 0 6.788 2.81 9.596 9.596 0 0 0 9.597-9.598c0-2.65-1.073-5.05-2.81-6.787z" fill="#fff"/><path d="M45.759 46.285a8.903 8.903 0 1 0 0-17.807 8.903 8.903 0 0 0 0 17.807z" fill="#fff" style="mix-blend-mode:multiply"/><path d="M45.76 26.23c-6.157 0-11.15 4.993-11.15 11.151s4.993 11.152 11.15 11.152 11.152-4.994 11.152-11.152c0-6.158-4.994-11.151-11.151-11.151zm0 20.749c-5.3 0-9.597-4.296-9.597-9.598s4.296-9.597 9.598-9.597 9.597 4.296 9.597 9.597-4.296 9.598-9.597 9.598z" fill="#00A1FF"/><path d="M53.045 32.33 39 43.245a8.806 8.806 0 0 0 1.252 1.212l13.66-10.617a9.002 9.002 0 0 0-.863-1.513l-.003.003zm-6.584-3.73-9.448 7.342a8.883 8.883 0 0 0 .829 5.562l13.805-10.728a8.904 8.904 0 0 0-5.186-2.176z" fill="#8281A7" style="mix-blend-mode:screen"/><path d="M43.766 51.356h3.99V68.19a1.89 1.89 0 0 1-1.888 1.889h-.213a1.89 1.89 0 0 1-1.89-1.89V51.357z" fill="#00A1FF"/><path d="M44.801 52.994s-2.166-.616-2.921 0c-.758.616-.62 2.12-.62 2.12s-2.187.21-2.258 1.577c-.067 1.364.549 2.39.549 2.39s-.89.562-.89 1.615.29 1.51.29 1.51-1.452 1.628-.768 2.637c.684 1.009 9.164 1.872 10.258.585 1.093-1.286-1.456-2.512-1.456-2.512s1.73-.091 1.73-1.415c0-1.323-.887-1.462-.887-1.462s1.435-.528 1.503-1.358c.068-.829-1.503-2.264-1.503-2.264l-3.023-3.42-.004-.003z" fill="#FEC7A8"/><path d="M49.085 53.235s-.769-1.486-1.642-1.283c-.873.206-6.002 4.871-5.538 7.028.46 2.153 5.23-1.537 5.23-1.537v7.989s5.335-3.477 4.922-5.664c-.41-2.187-2.976-6.53-2.976-6.53l.004-.003z" fill="#FEC7A8"/><path d="M43.661 55.32s-2.522 2.173-1.557 4.076c.965 1.906 5.034-1.96 5.034-1.96s-3.19 4.083-5.25 2.552c-2.066-1.526 1.776-4.671 1.776-4.671l-.003.003zm4.958 9.039s-.61-1.175-1.639-1.442c0 0 2.211-.481 1.866-2.1 0 0-.186-.764-1.114-1.418 0 0 1.798-.606 1.151-1.797 0 0 .972 1.229-.647 1.797 0 0 1.05.914.938 1.788-.115.877-.85 1.486-1.442 1.777 0 0 .779.46 1.198 1.148l-.311.247z" fill="#E3A27D"/><path d="M76.234 143.19s1.466 6.456 14.544 7.261c13.077.809 19.276-5.951 20.021-8.592.744-2.64-39.361-13.585-34.565 1.331z" fill="#2B57C2"/><path d="M124.918 38.593a6.541 6.541 0 0 1-1.886 3.836 6.462 6.462 0 0 1-2.708 1.631 6.425 6.425 0 0 1-2.746.244l-.071-.01a5.653 5.653 0 0 1-.812-.166 6.012 6.012 0 0 1-1.514-.62 6.61 6.61 0 0 1-2.87-3.253c-.007-.01-.007-.017-.007-.017a6.643 6.643 0 0 1-.42-3.283c.447-3.565 3.683-6.114 7.251-5.708l.078.01c.112.014.224.027.325.047.41.075.803.183 1.178.336a6.297 6.297 0 0 1 2.353 1.53 6.503 6.503 0 0 1 1.849 5.42v.003z" fill="#AD5713"/><path d="M96.277 34.351a5.386 5.386 0 1 0 0-10.772 5.386 5.386 0 0 0 0 10.772z" fill="#B35A14"/><path d="M93.848 36.132c-.03.989-.129 2.55-.362 3.463-.109.407-.26.884-.413 1.361-.383 1.138-.81 2.268-.88 2.373-1.615-.287-3.074-1.435-3.778-2.898-.38-.758-.552-1.594-.447-2.437a4.625 4.625 0 0 1 2.346-3.487 4.539 4.539 0 0 1 1.056-.443 4.514 4.514 0 0 1 1.804-.142h.027a4.798 4.798 0 0 1 1.436.423c-.484.514-.782.86-.782.86s0 .206-.004.538c0 .044-.003.091-.003.142 0 .078-.007.163 0 .247z" fill="#C76315"/><path d="M98.762 30.62c-.288.041-.484.068-.548.082-.03.003-.038 0-.038 0s-.22.335-.785.938c-.427-.45-.965-1.283-1.134-2.661-.166-1.381.057-2.39.27-3a5.172 5.172 0 0 1 1.734.701l.498 3.94h.003zm-3.937 5.11s-.362.287-.978.402c-.82.146-2.082-.027-3.534-1.628a4.53 4.53 0 0 1 1.056-.444s1.042 1.422 2.485 1.68a2.3 2.3 0 0 0 .971-.014v.003zm-1.757 5.21c-.382 1.137-.809 2.267-.88 2.372-1.615-.287-3.074-1.435-3.778-2.897.63.362 1.371.653 2.255.792 1.029.159 1.804.02 2.4-.268h.003z" fill="#AD5713"/><path d="M122.678 44.49a6.503 6.503 0 0 1-1.893 3.84 6.5 6.5 0 0 1-2.708 1.631 6.468 6.468 0 0 1-2.745.244l-.071-.01a6.014 6.014 0 0 1-.81-.166c-.054-.014-.108-.027-.162-.047a5.92 5.92 0 0 1-1.354-.576 6.608 6.608 0 0 1-2.868-3.253c-.006-.007-.006-.014-.006-.014a6.635 6.635 0 0 1-.423-3.287 6.509 6.509 0 0 1 1.289-3.158 6.562 6.562 0 0 1 5.965-2.55l.078.01c.112.014.224.028.328.048.41.081.799.186 1.179.338.903.325 1.699.86 2.352 1.53.176.18.346.37.505.566.017.024.037.047.047.071h.007a6.495 6.495 0 0 1 1.293 4.78l-.003.004z" fill="#C76315"/><path d="M107.257 28.698a4.578 4.578 0 1 0-.001-9.155 4.578 4.578 0 0 0 .001 9.155z" fill="#AD5713"/><path d="M114.482 35.634a6.79 6.79 0 1 0 0-13.581 6.79 6.79 0 0 0 0 13.581z" fill="#AD5713"/><path d="M93.38 69.01s-.109-.436 2.725 0 9.634.816 9.848 1.578c.213.762-5.986 2.905-7.418 2.644-1.432-.26-5.156-4.221-5.156-4.221z" fill="#95AFBF"/><path d="m104.802 73.107-10.552-2.19 1.239-5.085.345-1.395.126-.772.06-.383 8.829 1.47-.033.45-.126 1.621.014.732.098 5.552z" fill="#FEC7A8"/><path d="M90.724 73.184s-3.402.193-5.846.373.02 2.424.02 2.424l5.826-2.797zm17.897 1.673s6.188.897 7.346 1.648c1.158.752-.931 1.944-1.164 2.197-.234.254-6.182-3.845-6.182-3.845z" fill="#E94582"/><path d="m75.385 137.749.173.853s.145.664 3.697 1.591c4.587 1.195 6.086 1.314 6.086 1.314l.339-1.043.413 1.148s13.991 2.19 22.363 1.09c2.969-.39 3.626-1.304 3.626-1.304l.45-1.665-37.157-1.987.01.003z" fill="#D6E8F2"/><path d="M113.726 136.761c-.155.626-.643 2.799-.643 2.799s1.28 3.792-16.161 2.028c-17.452-1.757-21.93-3.961-21.93-3.961l-.146-3.145s-1.838-1.628-1.892-3.791c-.048-2.163 3.649-16.91 4.11-28.318.29-7.245-.617-13.17.727-18.403 1.246-4.851 5.044-8.605 9.862-9.98 2.285-.65 5.22-1.374 8.334-1.828 4.868-.714 12.113 1.639 17.208 4.249l.007.006c2.139 1.09 3.896 2.228 4.952 3.203 3.572 3.304 3.734 6.29 3.416 8.832-.318 2.55-4.221 18-4.496 25.319-.27 7.312-.44 13.978-.003 17.583.44 3.616-3.179 4.777-3.345 5.403v.004z" fill="#FE5A8F"/><path d="M111.357 78.455c-.119 1.686-2.59 4.256-5.847 6.974 0 0-1.069-.46 0 0-5.338 4.465-11.144 10.034-13.771 12.058-.014.007-.017.014-.017.02-.626.482-.972.8-.951.908 0 0 0-.007-.004-.02-.663-3.318-2.265-10.772-3.09-16.585v-.007c-.58-4.072-.79-7.339-.028-7.81 6.893-4.299 15.732-2.684 23.745 1.547 0 0 .362 1.087-.037 2.915z" fill="#D6E8F2"/><path d="M90.763 98.392c-.664-3.318-2.265-10.772-3.091-16.585 2.326 8.02 3.047 16.08 3.09 16.585z" fill="#B8D2E3"/><path d="M74.848 134.482s8.5 2.455 17.475 3.643c8.974 1.188 21.683-1.686 21.683-1.686l-.39.772s-10.433 2.823-21.371 1.534c-10.938-1.29-17.35-3.264-17.35-3.264l-.047-.999z" fill="#E94582"/><path d="M97.172 70.517c-.024-.163.304.958.328 1.042 0 0 .626-.626.786-.687.159-.06.318 4.79.318 4.79l6.313-.132s-4.631 2.316-6.26 2.373c-.642.024-1.242-2.603-1.242-2.603-.196 1.598-5.904 15.89-5.883 22.346l-.759.766c.044-8.978 5.715-20.174 5.969-23.278 0 0-.874 2.052-1.25 2.004-2.549-.335 1.68-6.621 1.68-6.621z" fill="#95AFBF"/><path d="m91.477 72.298 1.899-3.287s.088.341 1.601.836c2.234.728 2.024.606 2.173.656.271.099-1.438 6.297-1.865 6.51-.426.214-2.905-2.637-3.808-4.715zm15.51 1.946-1.029-3.656s-1.524.393-3.111.498c-2.346.152-4.405-.23-4.564-.214-.288.027.193 6.28.555 6.595.363.315 6.757-1.429 8.149-3.223z" fill="#B8D2E3"/><path d="M97.19 79.705a.49.49 0 1 0-.49-.491c0 .27.219.49.49.49z" fill="#95AFBF"/><path d="M97.26 79.501a.386.386 0 1 0 .001-.772.386.386 0 0 0 0 .772z" fill="#B8D2E3"/><path d="M95.374 85.635a.49.49 0 1 0-.491-.49c0 .27.22.49.49.49z" fill="#95AFBF"/><path d="M95.445 85.432a.386.386 0 1 0 0-.772.386.386 0 0 0 0 .772z" fill="#B8D2E3"/><path d="M93.659 91.459a.491.491 0 1 0 0-.982.491.491 0 0 0 0 .982z" fill="#95AFBF"/><path d="M93.73 91.255a.386.386 0 1 0 0-.772.386.386 0 0 0 0 .772z" fill="#B8D2E3"/><path d="M83.836 73.913s-1.675.358.268 4.976c1.933 4.59.819 5.836 2.288 8.792 2.265 4.556 4.198 10.867 4.198 10.867s-2.695-7.41-4.32-10.688c-2.19-4.414-.843-5.359-2.57-8.754-1.729-3.396-.906-4.841.136-5.193z" fill="#E94582"/><path d="M84.585 73.594s-.948.172.102 1.797 2.996 7.553 2.996 7.553l-3.585-4.059s-1.337-2.204-1.023-3.96c.315-1.758 1.51-1.335 1.51-1.335v.004z" fill="#FE5A8F"/><path d="M116.168 76.566s1.974.477-.23 4.977S104.99 88.3 99.77 91.749c-6.442 4.256-8.579 6.558-8.579 6.558s5.674-3.856 10.068-6.653c4.625-2.941 13.383-6.486 15.085-9.895 1.703-3.405.87-4.844-.176-5.193z" fill="#E94582"/><path d="M115.41 76.255s.948.166-.088 1.8-2.631 6.626-2.631 6.626l3.244-3.135s1.394-2.227.995-3.967c-.291-1.263-1.52-1.324-1.52-1.324z" fill="#FE5A8F"/><path d="M104.699 67.554c-1.256.288-2.84.813-4.577.603-2.471-.301-3.845-1.517-4.638-2.326l.346-1.395.125-.771 8.856 1.536-.125 1.622.013.731z" fill="#E3A27D"/><path d="M93.32 63.428c.928 1.002 2.16 1.81 3.768 2.366.217.071.437.129.657.186 6.679 1.744 13.748-1.879 15.194-11.06.93-5.947 1.956-13.29 1.157-19.255-.761-7.34-9.939-8.494-15.603-6.398-5.518 2.024-5.582 9.62-6.476 14.624-.982 6.415-2.938 14.98 1.307 19.544l-.003-.007z" fill="#FEC7A8"/><path d="M100.69 27.892a3.588 3.588 0 1 0 0-7.176 3.588 3.588 0 0 0 0 7.176z" fill="#AD5713"/><path d="M101.052 27.892c-.109.796.511.4.728 1.124l1.709-.027s.163.613 1.662 1.35c.467.23.968.475 1.48.705 1.963.914 2.146 2.42 2.298 2.695.481-.447 2.231-2.09 2.519-2.692a5.32 5.32 0 0 0 .518-1.689 5.505 5.505 0 0 0-4.729-6.188 5.487 5.487 0 0 0-6.04 4.021c-.067.22-.115.457-.149.701h.004z" fill="#C76315"/><path d="M84.476 75.026s.054 2.302 1.76 6.192c1.707 3.89 2.032 5.548 2.032 5.548s-.996-3.398-2.316-7.038c-1.32-3.639-.657-5.633-.657-5.633l-.822.931h.003zm31.3 2.02s-1.473 2.628-2.353 5.509c-.88 2.88-6.95 5.234-6.95 5.234s6.178-2.895 6.557-5.915c.379-3.02 1.056-5.2 1.056-5.2l1.69.373z" fill="#E94582"/><path d="M87.074 90.246s.186 3.277-.294 7.31c-.481 4.031-.715 6.211-.674 7.809" stroke="#fff" stroke-width=".588" stroke-linecap="round" stroke-linejoin="round"/><path d="m85.988 106.272.095-.738" stroke="#D6E8F2" stroke-width=".294" stroke-linecap="round" stroke-linejoin="round"/><path d="M100.876 92.575s-.318 3.267-1.408 7.18c-1.09 3.914-1.656 6.03-1.859 7.618" stroke="#fff" stroke-width=".588" stroke-linecap="round" stroke-linejoin="round"/><path d="m97.356 108.246.206-.714" stroke="#D6E8F2" stroke-width=".294" stroke-linecap="round" stroke-linejoin="round"/><path d="m86.314 140.207.288-2.163.034-.64s-.576-1.036-.6-1.706c-.023-.671 4.997-37.554 4.997-37.554l-.267.268s-5.004 36.893-5.102 37.238c-.098.346.332 2.272.332 2.272l-.535 2.207.85.075.003.003z" fill="#E94582"/><path d="M96.123 45.228s-2.282 5.5-2.566 6.679c-.284 1.175.965 1.564 1.74 1.713.775.149 2.515-.335 2.827-1.483.308-1.147-.586-6.723-.586-6.723l-1.415-.183v-.003z" fill="#D69A76"/><path d="M96.274 44.063s-2.214 5.976-2.502 7.15c-.284 1.175.826 1.652 1.601 1.801.776.15 2.465.105 2.776-1.042.308-1.148-.46-7.726-.46-7.726l-1.415-.183z" fill="#FEC7A8"/><path d="M96.704 45.973s-1.005 4.55-1.046 4.864c-.04.315.515.945.667.088.153-.86.9-4.888.64-4.918l-.26-.034z" fill="#FED5BF"/><path d="M93.355 44.856a.613.613 0 1 0 0-1.226.613.613 0 0 0 0 1.226zm7.246 1.093a.613.613 0 0 0 .613-.613.613.613 0 0 0-.613-.612.613.613 0 0 0-.613.612.613.613 0 0 0 .613.613z" fill="#44361B"/><path opacity=".17" d="m105.406 42.598-.65 4.509c-.186 1.48-1.361 2.356-2.83 2.309a3.658 3.658 0 0 1-.274-.02c-.697-.089-1.415-.187-1.855-.674a2.691 2.691 0 0 1-.64-1.107c-.101-.325-.037-.898-.013-1.256 0-.058.006-.112.013-.17l.542-4.306 5.711.718-.004-.003z" fill="#fff"/><path opacity=".22" d="m103.893 42.408-4.631 4.973a2.774 2.774 0 0 1-.119-1.022l3.788-4.07.965.122-.003-.003zm1.512.19-.447 3.568-3.03 3.25a3.753 3.753 0 0 1-.274-.02c-.697-.089-1.706-.278-2.146-.766l5.88-6.036h.02l-.003.004z" fill="#fff"/><path opacity=".17" d="m96.313 41.46-.532 4.63c-.186 1.48-1.48 2.235-2.948 2.188a3.773 3.773 0 0 1-.275-.02c-.697-.089-1.415-.234-1.855-.722a2.692 2.692 0 0 1-.64-1.107c-.101-.325-.037-.85-.013-1.208 0-.058.007-.112.013-.17l.542-4.306 5.711.718-.003-.003z" fill="#fff"/><path opacity=".22" d="m94.795 41.267-4.63 4.973a2.776 2.776 0 0 1-.12-1.023l3.789-4.069.965.122-.004-.003zm1.519.193-.447 3.568-3.03 3.25a3.717 3.717 0 0 1-.274-.02c-.697-.089-1.588-.495-2.028-.982l5.762-5.82h.02l-.003.004z" fill="#fff"/><path d="m91.858 42.804-1.303-2.01m14.843 1.861 4.774 3.436m-19.618-5.298 5.706.716c-.092.74-.35 2.605-.578 4.24a2.888 2.888 0 0 1-3.282 2.458v0a2.899 2.899 0 0 1-2.443-3.298c.237-1.589.501-3.385.593-4.116h.004zm9.141 1.15 5.707.715c-.096.773-.422 2.784-.702 4.479a2.838 2.838 0 0 1-3.145 2.351v0a2.848 2.848 0 0 1-2.477-3.23c.286-2.004.616-4.316.614-4.316h.004zm-3.78 2.344s1.502-.539 3.134.392" stroke="#44361B" stroke-width="1.177" stroke-linecap="round" stroke-linejoin="round"/><path d="m92.035 38.783 4.134-.071m9.052 1.455-4.526-1.012" stroke="#AD5713" stroke-width="1.177" stroke-linecap="round" stroke-linejoin="round"/><path d="M121.483 38.898a5.359 5.359 0 0 1-1.55 3.152 5.31 5.31 0 0 1-2.228 1.34 5.299 5.299 0 0 1-2.258.203l-.057-.006a4.646 4.646 0 0 1-.667-.136 5.088 5.088 0 0 1-1.246-.508 5.424 5.424 0 0 1-2.359-2.674c-.007-.007-.004-.013-.004-.013a5.47 5.47 0 0 1-.345-2.699 5.398 5.398 0 0 1 5.958-4.692l.064.007a4.83 4.83 0 0 1 1.236.315c.741.27 1.398.708 1.933 1.26a5.344 5.344 0 0 1 1.52 4.451h.003z" fill="#C76315"/><path d="m110.02 39.172.148 7.36 3.799 1.3.684-6.561-1.886-4.096-2.745 1.997z" fill="#C76315"/><path d="M122.678 44.49a6.502 6.502 0 0 1-1.892 3.84 6.511 6.511 0 0 1-2.709 1.631 6.467 6.467 0 0 1-2.745.244l-.071-.01a5.984 5.984 0 0 1-.809-.166c-.054-.014-.109-.027-.163-.048l-.325-1.039c7.573.112 7.045-6.293 7.045-6.293-.894.555-2.004.707-3.091.67-2.119-.075-4.109-.87-4.109-.87a7.444 7.444 0 0 0 7.457-2.59v-.007c.075-.091.112-.142.112-.142h.007a6.495 6.495 0 0 1 1.293 4.78z" fill="#AD5713"/><path d="M114.398 49.636a3.024 3.024 0 0 1-3.372 2.627 2.938 2.938 0 0 1-1.506-.643l.639-5.102a2.94 2.94 0 0 1 1.619-.25 3.02 3.02 0 0 1 2.62 3.371v-.003z" fill="#FEC7A8"/><path d="M113.694 49.548a2.437 2.437 0 0 1-2.719 2.12 2.333 2.333 0 0 1-1.377-.664l.487-3.883a2.435 2.435 0 0 1 3.609 2.424v.003z" fill="#D69A76"/><path d="M113.169 49.73a2.039 2.039 0 0 1-2.272 1.764 2.023 2.023 0 0 1-1.276-.677l.379-3.023a1.997 1.997 0 0 1 1.405-.342 2.041 2.041 0 0 1 1.764 2.279z" fill="#EFB391"/><path d="m96.465 44.737-2.563 5.617 1.24.843 1.323-6.46z" fill="#FEC7A8"/><path d="M103.457 28.061s2.075-5.135 6.977-4.793l.83 3.622s-5.265.643-7.807 1.175v-.004zm7.922 11.003s6.297 1.083 7.756-6.026l-2.841-1.764s-2.969 6.07-4.912 7.79h-.003z" fill="#AD5713"/><path d="M106.035 28.976s5.478 9.634 5.346 10.088a5.558 5.558 0 0 0 1.767-.325 5.404 5.404 0 0 0 1.577-.826 5.842 5.842 0 0 0 2.323-3.707 5.912 5.912 0 0 0-4.774-6.859c-.152-.027-.294-.044-.447-.064a5.959 5.959 0 0 0-2.142.176 6.002 6.002 0 0 0-2.231 1.168c-.674.562-1.053-.457-1.419.349z" fill="#AD5713"/><path d="M102.299 28.78s-8.842 6.678-8.903 7.145a5.56 5.56 0 0 1-1.493-.995 5.473 5.473 0 0 1-1.12-1.381 5.86 5.86 0 0 1-.668-4.323 5.914 5.914 0 0 1 9.435-3.284 5.989 5.989 0 0 1 1.585 1.957c.399.782 1.147 0 1.164.88z" fill="#C76315"/><path d="M117.141 35.682c-.816 2.911-3.917 4.499-7.008 3.619 0 0 .014.003 0 0-.457-.488-1.983-1.202-3.852-4.046-2.262-3.436-2.617-5.907-2.617-5.907s-.718.139-2.387.227c.522-1.124 1.277-1.88 2.187-2.648v-.006c.376-.312.765-.59 1.178-.833a8.546 8.546 0 0 1 2.414-.975v-.007a8.532 8.532 0 0 1 4.205.105 8.495 8.495 0 0 1 5.883 10.47h-.003z" fill="#C76315"/><path d="M109.226 27.316s-1.144.603 1.757 1.93c2.902 1.33 3.355 4.445 3.944 4.476.589.03-.467-6.575-5.701-6.406z" fill="#D96C17"/><path d="M137.551 141.425c-2.37 1.886-20.783 9.225-35.648 14.93-5.071 1.943-9.733 3.7-13.2 4.98a351.12 351.12 0 0 1-4.481 1.628s-2.32-1.781-2.654-4.384a4.635 4.635 0 0 1-.007-1.226l10.454-5.006 5.047-2.418a5.975 5.975 0 0 1-.514-2.583c.054-2.586 2.115-4.333 2.115-4.333s30.194-12.275 36.457-12.275c6.263 0 6.046 7.807 2.431 10.687z" fill="#3563D3"/><path d="M96.553 147.35c-.02.809.118 1.682.514 2.583l16.734-7.211-17.248 4.628zm5.35 9.005c-5.071 1.943-9.733 3.7-13.2 4.98a33.08 33.08 0 0 1-7.135-2.756 4.628 4.628 0 0 1-.007-1.225l10.454-5.007 9.888 4.008z" fill="#2B57C2"/><path d="M120.733 170.272s3.558-.2 4.756-5c.484-1.944.237-3.592-5.44-5.891-5.674-2.299-15.291-4.377-16.453-3.527-1.157.849-4.36 9.255-2.22 10.701l19.354 3.717h.003z" fill="#E6E6E6"/><path d="M102.388 159.706c-.707 1.72-1.005 6.848-1.005 6.848l19.354 3.717s4.346-3.27 2.803-5.978c-1.547-2.705-15.712-5.972-17.519-6.053-1.808-.081-3.213.45-3.633 1.466z" fill="#BDBDBD"/><path d="M103.696 160.451s.101-2.041-1.263-.2c-.562.759-1.811 4.127-1.219 5.806.187.525 1.209-1.703 1.209-1.703l1.273-3.899v-.004z" fill="#A6A6A6"/><path d="M100.726 164.581s1.368-1.781 1.524-2.962l.183-1.371-5.261-2.532-.999-.485-2.353 4.919 1.842.65 5.061 1.778.003.003z" fill="#EFB391"/><path d="M95.662 162.804c.193-.457 1.9-2.929 1.51-5.085l-.999-.484-2.353 4.919 1.842.65z" fill="#D69A76"/><path d="M101.744 165.586s1.453-.433 2.174-2.423c.714-1.994-1.25-3.125-1.25-3.125l-.328-.163v-.006l-.626-.315-.559-.278-.569-.288v-.006l-.551-.278-.701-.352-.437.2.305.145s.07.816-.549 2.39c-.626 1.568-1.482 2.248-1.482 2.248l-.292-.105s-.013.363.088.434c.031.023.325.142.725.308.183.071.39.152.603.243.182.065.375.143.565.214.2.084.396.159.582.237.2.081.39.152.545.213h.007c.295.118 1.743.704 1.743.704l.007.003z" fill="#F0E8DB"/><path d="M98.298 164.219c.545-.471 1.36-1.398 1.865-3.03.325-1.039.417-1.747.427-2.204v-.007l-.552-.277a9.356 9.356 0 0 1-.406 2.305c-.42 1.371-1.344 2.41-1.937 2.966.183.071.39.152.603.243v.004zm1.144.45c.535-.45 1.398-1.405 1.899-3.142.257-.876.349-1.52.369-1.973l-.559-.278a9.33 9.33 0 0 1-.348 2.075c-.41 1.446-1.368 2.533-1.944 3.084.2.085.396.159.583.237v-.003zm1.045.409s.833-.457 1.554-2.447c.714-1.994.623-2.593.623-2.593l-.329-.163a9.204 9.204 0 0 1-.342 1.879c-.423 1.49-1.428 2.597-1.997 3.132l.488.196.003-.004zm1.027.414s.833-.457 1.554-2.448c.714-1.994.623-2.593.623-2.593l-.328-.163a9.204 9.204 0 0 1-.342 1.879c-.423 1.49-1.429 2.597-1.998 3.132l.488.196.003-.003z" fill="#D54042"/><path d="M103.307 159.456s1.696 2.437-2.14 6.411a.407.407 0 0 0 .214.684l16.93 3.26s3.646-1.537 2.149-4.621c-1.496-3.084-17.15-5.734-17.15-5.734h-.003z" fill="#CDCDCD"/><path d="M109.816 161.253s-2.133-.328-3.633 3.023c-1.499 3.352 1.598 4.326 1.598 4.326" stroke="#fff" stroke-width=".588" stroke-linecap="round" stroke-linejoin="round"/><path d="M109.104 168.606c-.311-.241-3.439-3.213-2.346-5.397" stroke="#fff" stroke-width=".588" stroke-linecap="round" stroke-linejoin="round"/><path d="M111.386 162.052c-.366-.091-4.053 1.141-3.812 4.838" stroke="#fff" stroke-width=".588" stroke-linecap="round" stroke-linejoin="round"/><path d="M110.535 168.839s-2.001-3.168-.883-6.083m4.731-.589s-.572-1.293-1.551-.762c-.978.532-2.437 3.768.288 7.316" stroke="#fff" stroke-width=".588" stroke-linecap="round" stroke-linejoin="round"/><path d="M113.872 163.26c-.081-.05-4.614-.135-4.387 2.908" stroke="#fff" stroke-width=".588" stroke-linecap="round" stroke-linejoin="round"/><path d="M96.755 156.453c.407 3.253-2.684 6.51-2.684 6.51-8.694-3.06-50.618-20.122-54.237-23-3.615-2.881-3.835-10.687 2.428-10.687s35.13 10.917 35.13 10.917 3.388 3.105 3.442 5.691a5.978 5.978 0 0 1-.514 2.583l16.435 7.986z" fill="#3563D3"/><path d="M80.834 145.884a5.982 5.982 0 0 1-.514 2.583l-16.734-7.211 17.248 4.628z" fill="#2B57C2"/><path d="M100.676 57.558a.724.724 0 0 1-.375.514c-.078.037-.173.088-.285.14-.84.392-2.437.991-4.001.727-1.89-.318-3.301-1.784-3.795-2.363a.672.672 0 0 1-.15-.538.66.66 0 0 1 .373-.488.656.656 0 0 1 .427-.037c.944.23 2.62.626 3.405.762.928.162 2.74.352 3.768.453.413.04.701.423.633.83z" fill="#fff"/><path d="M100.674 57.558a.723.723 0 0 1-.376.514c-.078.037-.172.088-.284.14.325-.604.257-.939-.105-1.145-.43-.23-2.685-.366-4.428-.745a52.518 52.518 0 0 1-3.043-.772.656.656 0 0 1 .426-.037c.945.23 2.62.626 3.406.762.927.162 2.738.352 3.768.453.413.04.7.423.633.83h.003z" fill="#BF8A69"/><path d="M92.644 57.033s1.923.518 3.399.806c1.48.291 3.345.443 3.345.443s-1.88.153-3.633-.182c-1.753-.336-2.613-.603-2.613-.603l-.501-.464h.003z" fill="#B8D2E3"/><path d="m103.572 142.559-.555.64-38.992-2.339-13.992 6.987-.951-.233v.677c0 .132.102.24.23.254l44.334 4.031c.481.044.955-.128 1.294-.47l8.517-8.731a.414.414 0 0 0 .119-.288v-.524l-.004-.004z" fill="#E94582"/><path d="m49.167 147.488 14.621-7.302c.16-.078.332-.115.508-.105l39.134 2.35a.151.151 0 0 1 .098.26l-8.598 8.629a1.603 1.603 0 0 1-1.273.464l-44.436-4.005c-.152-.013-.193-.22-.054-.287v-.004z" fill="#FE5A8F"/><path d="m52.458 146.849 11.882-6.057a.355.355 0 0 1 .187-.04l34.029 2.095c.125.007.18.159.091.244l-6.913 6.74a1.983 1.983 0 0 1-1.56.555l-37.696-3.422c-.06-.007-.078-.088-.024-.119l.004.004z" fill="#00A1FF"/><path fill-rule="evenodd" clip-rule="evenodd" d="M67.425 140.93c.771.536 1.451 1.14 1.964 1.812 2.708 3.555 6.94 4.74 11.002 4.909l.019.001c2.822.117 7.666.319 11.498 2.01l-.174.169a1.983 1.983 0 0 1-1.56.555l-37.696-3.422c-.06-.007-.078-.088-.023-.119l.003.004 11.882-6.057a.355.355 0 0 1 .187-.04l2.899.178z" fill="#fff" fill-opacity=".2"/><path d="M97.109 147.835c.598-.261.941-.797.767-1.196-.175-.399-.801-.511-1.399-.25-.598.262-.941.797-.767 1.196.175.399.801.511 1.399.25z" fill="#E94582"/><path d="m107.124 137.035-.294.812c-.312.342-4.432 4.828-6.453 7.143-.484.555-.846.985-1.005 1.205a2.297 2.297 0 0 1-.559.522c-1.236.846-3.561 1.239-4.194.203-.44-.718.951-1.771 1.987-2.333.883-.48 1.7-3.916 2.854-5.491 1.158-1.574 7.664-2.058 7.664-2.058v-.003z" fill="#FEC7A8"/><path d="M108.256 147.272s-2.621 3.412-4.415 4.411c-1.12.623-1.659.565-1.906.433-.149-.081-.193-.186-.193-.186a5.105 5.105 0 0 1-.362.213c-1.31.701-1.777.129-1.842-.253a.358.358 0 0 1 .048-.21c.057-.136.162-.261.176-.281-.037.02-.386.206-.877.352-.494.145-1.127.25-1.727.098-1.235-.311 0-1.879 0-1.879.44-.504 1.172-1.181 1.686-2.271.03-.072.065-.143.095-.22.193-.461.319-.871.434-1.273.03-.112.06-.224.091-.332.156-.552.315-1.117.623-1.815.592-1.34 4.567-4.008 4.567-4.008l2.176-2.197.021-.02s.568.602 1.218 1.401c.742.911 1.592 2.079 1.845 2.918.481 1.578-1.658 5.122-1.658 5.122v-.003z" fill="#FEC7A8"/><path d="M99.466 145.87c.596-.792 1.317-1.801 1.696-2.522-.18.389-.46.995-.782 1.642-.504 1.016-1.104 2.136-1.537 2.698.03-.071.064-.142.095-.22.193-.46.318-.87.433-1.273a2.367 2.367 0 0 1-.558.518c.172-.217.399-.514.653-.846v.003zm.118 5.806c.057-.135.162-.26.176-.281a4.77 4.77 0 0 1-.877.352l3.145-2.698-2.441 2.631-.003-.004zm3.802-1.767-1.452 2.207c-.149-.081-.193-.186-.193-.186a5.34 5.34 0 0 1-.362.213c.602-.663 1.902-2.119 2.007-2.234zm4.874-2.637c.803-3.649.43-6.28-.186-8.04.742.911 1.591 2.079 1.845 2.918.481 1.578-1.659 5.122-1.659 5.122z" fill="#E3A27D"/><path d="M117.829 79.342s1.445.416 2.447 1.388c1.003.972 13.593 18.613 14.209 29.422.575 10.044-2.759 13.155-7.292 19.926-6.778 10.129-13.132 16.148-17.959 11.293-4.828-4.854-4.757-6.801-3.741-9.712 2.942-8.413 7.766-7.478 13.26-17.316 2.072-3.707-1.811-14.242-1.811-14.242s-1.913-18 .883-20.759h.004z" fill="#E94582"/><path d="m112.133 142.729-.166.206-1.974 1.486s-3.602-2.891-5.904-6.604l-.562-.959 1.91-1.943 6.699 7.814h-.003z" fill="#E94582"/><path d="M111.969 142.935s-1.314-1.164-3.724-3.971c-2.411-2.806-3.071-3.761-3.071-3.761l-.264.251s2.218 2.87 4.201 5.304c1.984 2.438 2.357 2.546 2.357 2.546l.501-.369z" fill="#D13E75"/><path d="m111.201 142.752-1.699 1.253-.295-.22 1.689-1.246.305.213zm-.973-1.005-1.788 1.317-.21-.285 1.693-1.246.305.214zm-1.113-1.219-1.787 1.317-.207-.284 1.689-1.246.305.213zm-1.007-1.317-1.882 1.388-.21-.284 1.787-1.317.305.213zm-.946-1.168-1.886 1.388-.21-.284 1.791-1.317.305.213zm-.984-1.334-1.886 1.388-.206-.284 1.787-1.317.305.213z" fill="#D13E75"/><path d="M174.419 49.301h-25.478v33.67h25.478v-33.67z" fill="#BCCEFA"/><path d="M173.283 48.17h-25.478v33.67h25.478V48.17z" fill="#DCE6F9"/><path d="M172.154 47.057h-25.478v33.67h25.478v-33.67z" fill="#BCCEFA"/><path d="M171.025 45.926h-25.478v33.67h25.478v-33.67z" fill="#DCE6F9"/><path d="M152.181 49.288h-4.486v2.539h4.486v-2.54z" fill="#FE5A8F"/><path d="M157.747 49.288h-4.485v2.539h4.485v-2.54z" fill="#00A1FF"/><path d="M163.31 49.288h-4.486v2.539h4.486v-2.54z" fill="#fff"/><path d="M168.876 49.288h-4.485v2.539h4.485v-2.54z" fill="#FE5A8F"/><path d="M152.181 52.809h-4.486v2.539h4.486v-2.54z" fill="#FCE358"/><path d="M157.747 52.809h-4.485v2.539h4.485v-2.54z" fill="#fff"/><path d="M163.31 52.809h-4.486v2.539h4.486v-2.54z" fill="#BCCEFA"/><path d="M168.876 52.809h-4.485v2.539h4.485v-2.54zm-16.695 3.517h-4.486v2.539h4.486v-2.54z" fill="#06C998"/><path d="M157.747 56.326h-4.485v2.539h4.485v-2.54z" fill="#BCCEFA"/><path d="M163.31 56.326h-4.486v2.539h4.486v-2.54z" fill="#FE5A8F"/><path d="M168.876 56.326h-4.485v2.539h4.485v-2.54z" fill="#FCE358"/><path d="M152.181 59.846h-4.486v2.54h4.486v-2.54z" fill="#FE5A8F"/><path d="M157.747 59.846h-4.485v2.54h4.485v-2.54z" fill="#FCE358"/><path d="M163.31 59.846h-4.486v2.54h4.486v-2.54z" fill="#fff"/><path d="M168.876 59.846h-4.485v2.54h4.485v-2.54z" fill="#00A1FF"/><path d="M167.436 45.462v3.93a.945.945 0 0 1-1.889 0v-4.356a1.443 1.443 0 0 1 2.884 0v.426" stroke="#06C998" stroke-width=".588" stroke-miterlimit="10"/><path d="M145.547 62.017v17.58h21.893c-8.616-9.68-16.554-1.243-21.893-17.58z" fill="#fff" fill-opacity=".3" style="mix-blend-mode:screen"/><path d="M158.786 64.65h-11.087v.498h11.087v-.498zm10.088 1.896h-21.175v.498h21.175v-.498zm-4.468 2.072h-16.707v.498h16.707v-.498zm-7.719 1.896h-8.988v.497h8.988v-.497zm12.187 2.071h-21.175v.498h21.175v-.498zm-5.538 1.896h-15.637v.498h15.637v-.498z" fill="#BCCEFA"/><path d="M151.172 62.179h-19.621v14.316h19.621V62.18z" fill="#CFDBF5"/><path d="M150.168 61.18h-19.621v14.317h19.621V61.18z" fill="#DCE6F9"/><path d="M150.168 69.91v5.587h-19.621V69.48c2.715-1.34 6.161-1.984 7.383-.9.833.744.264 1.882 1.246 2.779 1.408 1.293 3.944.183 8.436-.86.928-.217 1.781-.41 2.556-.586v-.003zm-.002-8.73v5.386a5.726 5.726 0 0 1-2.431.535 5.831 5.831 0 0 1-5.833-5.833c0-.027 0-.057.004-.084h8.26v-.004z" fill="#00A1FF"/><path d="M38.376 83.053c-3.108 1.28-4.817 2.674-4.817 4.137 0 1.462 1.71 2.857 4.817 4.137v-8.274z" fill="#06C998"/><path opacity=".62" d="m63.258 96.452-.156-.047C45.258 94.39 33.56 91.015 33.56 87.19v20.441c0 3.825 11.7 7.197 29.543 9.214l.156.048v-20.44z" fill="#DCE6F9"/><path d="m38.727 99.8 3.033 8.762 14.506 2.291-3.033-8.761L38.727 99.8z" fill="#3563D3"/><path d="m56.094 110.826-14.286-2.258-1.91-11.209 14.286 2.258 1.91 11.209z" fill="#fff"/><path d="m49.104 100.257-1.236 1.662-6.026-.951-.033 7.6 14.506 2.292.04-9.455-7.251-1.148z" fill="#00A1FF"/><path opacity=".62" d="M51.25 103.03v27.224s14.652 4.682 47.564 4.682v-27.407c-27.39 0-47.564-4.503-47.564-4.503v.004z" fill="#DCE6F9"/><path d="m60.803 112.749-4.909-.42v-4.909l4.91.42v4.909z" fill="#FCE358"/><path d="m78.049 111.236-15.627-1.334v-.498l15.627 1.334v.498zm14.214 3.107-29.841-2.546v-.497l29.841 2.542v.501zm-6.296 5.945-23.545-2.007v-.498l23.545 2.007v.498zm-10.877.968-12.668-1.08v-.497l12.668 1.08v.497zm17.173 7.949-29.841-2.542v-.501l29.841 2.545v.498zm-7.803 1.229-22.038-1.879v-.498l22.038 1.879v.498z" fill="#BCCEFA"/><path d="m60.803 121.128-4.909-.42v-4.909l4.91.42v4.909z" fill="#06C998"/><path d="m60.803 129.507-4.909-.42v-4.906l4.91.417v4.909z" fill="#FE5A8F"/><path opacity=".62" d="m142.622 91.445-1.577.213c-7.597 1.612-17.364 2.932-28.579 3.846h-.021v24.692c12.011-.978 22.357-2.424 30.16-4.191h.02V91.448l-.003-.003z" fill="#DCE6F9"/><path d="m127.188 104.905-11.801 1.53v-5.342l11.801-1.534v5.346z" fill="#00A1FF"/><path d="m140.391 103.188-11.801 1.534v-5.346l11.801-1.533v5.345z" fill="#06C998"/><path d="m127.188 107.972-11.801 1.706v-.497l11.801-1.707v.498zm-3.494 2.394-8.307 1.208v-.498l8.307-1.208v.498zm-2.285 2.173-6.022.853v-.498l6.022-.853v.498zm3.866 1.273-9.888 1.476v-.498l9.888-1.476v.498zm12.245-7.377-8.93 1.351v-.498l8.93-1.35v.497zm2.871 1.446-11.801 1.797v-.497l11.801-1.798v.498zm-2.871 2.345-8.93 1.273v-.501l8.93-1.269v.497zm-2.965 2.313-5.965.853v-.498l5.965-.853v.498z" fill="#BCCEFA"/><path d="M3.969 62.152a2.969 2.969 0 1 0 0-5.938 2.969 2.969 0 0 0 0 5.938z" stroke="#DCE6F9" stroke-width=".588" stroke-miterlimit="10"/><path d="M100.742 7.6a3.605 3.605 0 1 0 0-7.21 3.605 3.605 0 0 0 0 7.21z" fill="#F5F9FC"/><path d="M142.07 35.401a1.68 1.68 0 1 0 0-3.359 1.68 1.68 0 0 0 0 3.359z" stroke="#DCE6F9" stroke-width=".588" stroke-miterlimit="10"/><path d="M142.622 172.804a2.532 2.532 0 1 0 0-5.064 2.532 2.532 0 0 0 0 5.064z" fill="#F5F9FC"/><path d="M140.638 173.39a1.185 1.185 0 1 0 0-2.37 1.185 1.185 0 0 0 0 2.37z" stroke="#DCE6F9" stroke-width=".588" stroke-miterlimit="10"/><path d="M167.524 119.455a4.72 4.72 0 1 0 0-9.439 4.72 4.72 0 0 0 0 9.439z" fill="#F5F9FC"/><path d="M171.105 112.813a1.68 1.68 0 1 0 0-3.359 1.68 1.68 0 0 0 0 3.359z" fill="#FE5A8F"/><path d="M38.532 162.09a4.72 4.72 0 1 0 0-9.439 4.72 4.72 0 0 0 0 9.439z" fill="#FCE358"/><path d="M34.757 150.251a1.679 1.679 0 1 0 .001-3.357 1.679 1.679 0 0 0 0 3.357z" stroke="#DCE6F9" stroke-width=".588" stroke-miterlimit="10"/></svg>