<svg width="331" height="213" fill="none" xmlns="http://www.w3.org/2000/svg"><path fill-rule="evenodd" clip-rule="evenodd" d="M155.37-125.674c33.903 5.711 62.023 28.278 87.287 51.618 21.786 20.126 37.767 45.329 47.857 73.233 9.039 25 1.204 52.124 6.863 78.101 7.621 34.987 41.185 65.974 32.065 100.599-8.875 33.693-42.703 60.424-76.583 68.422-33.415 7.887-63.547-22.169-97.489-27.332-27.411-4.169-58.11 14.548-81.762.066-23.683-14.5-25.787-47.661-37.287-72.954-10.38-22.834-21.894-44.274-27.16-68.8C2.862 47.925-3.8 18.32 2.602-11.01c7.696-35.259 17.851-73.961 46.698-95.613 29.238-21.945 70.034-25.12 106.071-19.051z" fill="#b1dde3"/></svg>