<svg width="59" height="44" xmlns="http://www.w3.org/2000/svg"><g fill-rule="nonzero" fill="none"><path d="M37 15h10.885c.535 0 1.034.273 1.323.724l4.45 6.955c.224.35.577.597.983.687l3.127.854c.72.16 1.232.8 1.232 1.538v10.667c0 .87-.703 1.575-1.572 1.575H37V15z" fill="#FF4755"/><path d="m57.813 24.22-3.014-.854a1.516 1.516 0 0 1-.947-.687l-4.288-6.955A1.5 1.5 0 0 0 48.29 15H44l6.385 10.152c.217.35.557.597.947.687l3.014.854c.694.16 1.187.8 1.187 1.538V38h1.953c.836 0 1.514-.705 1.514-1.574V25.758c0-.739-.494-1.378-1.187-1.538z" fill="#E61F2D"/><path d="M0 37.333C0 38.253.71 39 1.584 39H38v-9H0v7.333z" fill="#8EBAC5"/><path fill="#7CA1B1" d="M35 30h3v9h-3z"/><path d="M38 31H0V1.075C0 .481.475 0 1.062 0h35.876C37.525 0 38 .481 38 1.075V31z" fill="#EAB765"/><path d="M37.078 0H34c.51 0 .922.481.922 1.075V31H38V1.075C38 .481 37.587 0 37.078 0z" fill="#D9AB5E"/><path d="m50.877 23.77-3.38-5.38a.848.848 0 0 0-.72-.39h-5.936c-.464 0-.841.363-.841.81v5.38c0 .447.377.81.84.81h9.318c.655 0 1.058-.69.719-1.23z" fill="#2DD2E3"/><path d="M59 36.386V34h-2.593C55.63 34 55 34.744 55 35.661V38h2.633c.755 0 1.367-.723 1.367-1.614z" fill="#FFF156"/><path d="M10.5 44A5.506 5.506 0 0 1 5 38.5c0-3.033 2.467-5.5 5.5-5.5s5.5 2.467 5.5 5.5-2.467 5.5-5.5 5.5z" fill="#384949"/><path d="M10.5 42C8.57 42 7 40.43 7 38.5S8.57 35 10.5 35s3.5 1.57 3.5 3.5-1.57 3.5-3.5 3.5z" fill="#DEECF1"/><path d="M45.5 44a5.506 5.506 0 0 1-5.5-5.5c0-3.033 2.467-5.5 5.5-5.5s5.5 2.467 5.5 5.5-2.467 5.5-5.5 5.5z" fill="#384949"/><path d="M45.5 42c-1.93 0-3.5-1.57-3.5-3.5s1.57-3.5 3.5-3.5 3.5 1.57 3.5 3.5-1.57 3.5-3.5 3.5z" fill="#DEECF1"/><path d="m14.437 13.808 3.512-2.767a.89.89 0 0 1 1.102 0l3.512 2.767c.58.458 1.437.046 1.437-.691V0H13v13.117c0 .737.856 1.149 1.437.69z" fill="#FF8709"/><g fill="#FFF3DE"><path d="M33.011 23.078h-7.034c-.506 0-.915-.449-.915-1.002 0-.553.409-1.002.915-1.002h7.034c.506 0 .915.45.915 1.002 0 .553-.409 1.002-.915 1.002zM33.011 27.952h-7.034c-.506 0-.915-.449-.915-1.002 0-.553.409-1.001.915-1.001h7.034c.506 0 .915.448.915 1.001 0 .553-.409 1.002-.915 1.002z"/></g></g></svg>